{"asset":{"version":"2.0","generator":"Blockbench 4.9.3 glTF exporter"},"scenes":[{"nodes":[4],"name":"blockbench_export"}],"scene":0,"nodes":[{"name":"cone","mesh":0},{"name":"cone","mesh":1},{"name":"cone","mesh":2},{"name":"cone","mesh":3},{"children":[0,1,2,3]}],"bufferViews":[{"buffer":0,"byteOffset":0,"byteLength":864,"target":34962,"byteStride":12},{"buffer":0,"byteOffset":864,"byteLength":864,"target":34962,"byteStride":12},{"buffer":0,"byteOffset":1728,"byteLength":576,"target":34962,"byteStride":8},{"buffer":0,"byteOffset":2304,"byteLength":144,"target":34963},{"buffer":0,"byteOffset":2448,"byteLength":1152,"target":34962,"byteStride":12},{"buffer":0,"byteOffset":3600,"byteLength":1152,"target":34962,"byteStride":12},{"buffer":0,"byteOffset":4752,"byteLength":768,"target":34962,"byteStride":8},{"buffer":0,"byteOffset":5520,"byteLength":192,"target":34963},{"buffer":0,"byteOffset":5712,"byteLength":1152,"target":34962,"byteStride":12},{"buffer":0,"byteOffset":6864,"byteLength":1152,"target":34962,"byteStride":12},{"buffer":0,"byteOffset":8016,"byteLength":768,"target":34962,"byteStride":8},{"buffer":0,"byteOffset":8784,"byteLength":192,"target":34963},{"buffer":0,"byteOffset":8976,"byteLength":1152,"target":34962,"byteStride":12},{"buffer":0,"byteOffset":10128,"byteLength":1152,"target":34962,"byteStride":12},{"buffer":0,"byteOffset":11280,"byteLength":768,"target":34962,"byteStride":8},{"buffer":0,"byteOffset":12048,"byteLength":192,"target":34963}],"buffers":[{"byteLength":12240,"uri":"data:application/octet-stream;base64,"}],"accessors":[{"bufferView":0,"componentType":5126,"count":72,"max":[0.25,3.75,0.25],"min":[-0.25,0,-0.25],"type":"VEC3"},{"bufferView":1,"componentType":5126,"count":72,"max":[0.9977851510047913,0.06651901453733444,0.9977851510047913],"min":[-0.9977851510047913,-1,-0.9977851510047913],"type":"VEC3"},{"bufferView":2,"componentType":5126,"count":72,"max":[0.2321409285068512,0.5947906374931335],"min":[0.002234074519947171,0],"type":"VEC2"},{"bufferView":3,"componentType":5123,"count":72,"max":[71],"min":[0],"type":"SCALAR"},{"bufferView":4,"componentType":5126,"count":96,"max":[1.25,2.0625,1.25],"min":[-1.25,1.0625,-1.25],"type":"VEC3"},{"bufferView":5,"componentType":5126,"count":96,"max":[0.6246950626373291,0.7808688282966614,0.6246950626373291],"min":[-0.6246950626373291,-1,-0.6246950626373291],"type":"VEC3"},{"bufferView":6,"componentType":5126,"count":96,"max":[0.6784637570381165,0.5228094458580017],"min":[0,0],"type":"VEC2"},{"bufferView":7,"componentType":5123,"count":96,"max":[95],"min":[0],"type":"SCALAR"},{"bufferView":8,"componentType":5126,"count":96,"max":[1.125,2.9375,1.125],"min":[-1.125,1.9375,-1.125],"type":"VEC3"},{"bufferView":9,"componentType":5126,"count":96,"max":[0.6643638014793396,0.7474093437194824,0.6643638014793396],"min":[-0.6643638014793396,-1,-0.6643638014793396],"type":"VEC3"},{"bufferView":10,"componentType":5126,"count":96,"max":[0.8430647253990173,0.7136553525924683],"min":[0.011394713073968887,0.140625],"type":"VEC2"},{"bufferView":11,"componentType":5123,"count":96,"max":[95],"min":[0],"type":"SCALAR"},{"bufferView":12,"componentType":5126,"count":96,"max":[0.9375,3.5,0.8125],"min":[-0.9375,2.75,-0.8125],"type":"VEC3"},{"bufferView":13,"componentType":5126,"count":96,"max":[0.6246950626373291,0.7808688282966614,0.6782801151275635],"min":[-0.6246950626373291,-1,-0.6782801151275635],"type":"VEC3"},{"bufferView":14,"componentType":5126,"count":96,"max":[0.9137060642242432,0.831114649772644],"min":[0.11279075592756271,0.3125],"type":"VEC2"},{"bufferView":15,"componentType":5123,"count":96,"max":[95],"min":[0],"type":"SCALAR"}],"materials":[{"pbrMetallicRoughness":{"metallicFactor":0,"roughnessFactor":1,"baseColorTexture":{"index":0}},"alphaMode":"MASK","alphaCutoff":0.05,"doubleSided":true},{"pbrMetallicRoughness":{"metallicFactor":0,"roughnessFactor":1,"baseColorTexture":{"index":1}},"alphaMode":"MASK","alphaCutoff":0.05,"doubleSided":true}],"textures":[{"sampler":0,"source":0},{"sampler":1,"source":1}],"samplers":[{"magFilter":9728,"minFilter":9728,"wrapS":33071,"wrapT":33071},{"magFilter":9728,"minFilter":9728,"wrapS":33071,"wrapT":33071}],"images":[{"mimeType":"image/png","uri":"data:image/png;base64,"},{"mimeType":"image/png","uri":"data:image/png;base64,"}],"meshes":[{"primitives":[{"mode":4,"attributes":{"POSITION":0,"NORMAL":1,"TEXCOORD_0":2},"indices":3,"material":0}]},{"primitives":[{"mode":4,"attributes":{"POSITION":4,"NORMAL":5,"TEXCOORD_0":6},"indices":7,"material":1}]},{"primitives":[{"mode":4,"attributes":{"POSITION":8,"NORMAL":9,"TEXCOORD_0":10},"indices":11,"material":1}]},{"primitives":[{"mode":4,"attributes":{"POSITION":12,"NORMAL":13,"TEXCOORD_0":14},"indices":15,"material":1}]}]}